<svg viewBox="0 0 192 170" height="170" width="192" xmlns:xlink="http://www.w3.org/1999/xlink" xmlns="http://www.w3.org/2000/svg">
  <defs>
    <polygon points="0 0 157 0 157 157 0 157" id="earth-europe-africa-a"></polygon>
  </defs>
  <g transform="translate(17 6)" fill-rule="evenodd" fill="none">
    <mask fill="#fff" id="earth-europe-africa-b">
      <use xlink:href="#earth-europe-africa-a"></use>
    </mask>
    <path mask="url(#earth-europe-africa-b)" d="M143.08331,86.0374376 C134.220913,77.4236628 131.84054,76.1583973 131.419606,90.539715 C131.262678,107.184479 126.117307,91.2123488 120.708543,88.2824223 C117.277679,88.4251954 116.342884,85.5648092 114.296059,83.7130661 C107.366023,88.1833426 89.1962935,75.0888295 93.1090162,85.8872796 C97.6014472,90.4818672 113.772968,83.5973706 102.570814,95.8413989 C79.6551086,112.916329 86.7537649,82.7684248 75.7405397,83.7856835 C71.6801206,91.3458909 81.6490095,108.569748 91.4917411,103.649613 C94.0204258,101.581864 98.3996229,99.5356541 99.4039582,104.048393 C101.032311,114.254827 85.078642,117.865388 85.9949749,127.842277 C85.1623366,157.65171 49.8456753,153.85776 51.7583432,122.909834 C48.1083969,117.891235 50.0746047,110.453492 44.230752,107.897114 C40.6392689,102.965287 33.1990647,107.034937 28.1201562,105.62259 C10.240281,94.3392038 19.4448412,67.6123167 40.0084823,68.8745051 C45.9440298,68.7895797 52.3558981,68.1083303 54.9375073,74.9448255 C58.6945335,78.087681 64.5063853,73.405091 68.1101765,77.8790599 C70.8554826,80.1449682 81.0483776,76.8679552 75.4531472,74.0666476 C72.49922,75.1460618 70.1145392,72.5219898 67.5341607,72.7256877 C61.2742966,74.8426689 64.2356086,60.5136603 58.5123747,61.8583126 C60.0859563,67.7747826 63.0214215,71.5779639 58.828691,69.8708402 C50.928782,49.060423 45.7181775,70.949639 38.5967513,66.3064347 C36.6071583,65.0091683 35.8532914,62.4490981 36.6256203,60.2028826 C39.9617118,50.4980009 44.0553626,59.2970116 46.3963499,55.2630547 C43.6473514,47.4757642 46.5871244,54.133793 55.6753737,48.4099436 C57.4175754,48.5127157 58.2120587,47.3526839 58.4139104,45.7126389 C61.1506009,41.9488433 59.8416419,54.2390266 66.3999757,47.0880612 C67.7526282,44.6086086 72.9976952,44.9938499 68.7046543,42.3623931 C72.5410673,31.8267194 67.332309,37.8478077 65.5734915,43.8867426 C62.7641836,46.6289717 61.3229133,43.8775116 60.6502795,41.4842151 C50.7078528,39.0884571 73.7134071,26.9312005 78.0452183,33.3861468 C81.9720953,36.8360876 91.5120493,31.3971692 93.3822545,27.5342939 C91.4437398,20.0713199 92.1459129,20.6651824 98.3786993,17.4355553 C114.18221,-1.33234425 149.679184,56.1720028 148.642232,73.1386221 C151.729086,77.9793703 150.08781,87.0177722 143.08331,86.0374376 M86.3556002,141.493113 C86.9999255,136.60744 92.4049969,129.171544 97.8316073,130.325422 C102.199112,135.636337 90.7747983,148.103141 86.3556002,141.493113 M41.8153012,43.2904186 C41.1691296,40.6140374 48.6154877,38.6416756 46.2043447,42.5242437 C45.3200127,43.5642722 42.7033255,44.7279965 41.8153012,43.2904186 M48.1920915,40.7740418 C48.804416,36.6317743 55.4242899,37.8767316 51.92204,41.8959188 C49.7176718,46.3926575 51.8321914,51.3675632 44.0055151,47.2209879 C44.362448,44.377833 49.5256666,44.5963005 48.1920915,40.7740418 M60.6398177,13.6871448 C76.0205474,18.4934305 44.230752,31.7344092 41.8399172,27.7884548 C39.2453845,21.2030433 56.8384826,11.6409348 60.6398177,13.6871448 M78.5,0 C35.1455797,0 0,35.1455797 0,78.5 C0,121.85442 35.1455797,157 78.5,157 C121.85442,157 157,121.85442 157,78.5 C157,35.1455797 121.85442,0 78.5,0" fill="#1F36C7"></path>
  </g>
</svg>
